<?xml version="1.0" standalone="no"?>
<!DOCTYPE svg PUBLIC "-//W3C//DTD SVG 20010904//EN"
 "http://www.w3.org/TR/2001/REC-SVG-20010904/DTD/svg10.dtd">
<svg version="1.0" xmlns="http://www.w3.org/2000/svg"
 width="500.000000pt" height="500.000000pt" viewBox="0 0 500.000000 500.000000"
 preserveAspectRatio="xMidYMid meet">
<metadata>
Created by potrace 1.11, written by Peter Selinger 2001-2013
</metadata>
<g transform="translate(0.000000,500.000000) scale(0.100000,-0.100000)"
fill="#000000" stroke="none">
<path d="M10 2495 l0 -1545 373 0 374 0 7 893 c4 491 4 901 0 911 -5 12 -3 17
4 15 9 -3 409 -666 959 -1592 l135 -227 377 0 376 0 159 245 c88 135 162 245
165 244 3 0 78 -110 166 -245 l160 -244 363 0 c288 0 362 3 356 13 -4 6 -156
246 -338 532 l-331 520 2 77 c7 221 161 424 381 500 54 18 89 23 177 23 124 0
166 -10 245 -57 52 -31 74 -56 177 -203 39 -55 102 -95 211 -134 132 -47 182
-95 182 -176 0 -61 53 -130 112 -145 55 -15 109 2 148 47 l33 37 -6 125 c-20
458 -342 875 -782 1014 -125 39 -218 50 -372 44 -96 -3 -164 -12 -223 -27
-236 -62 -447 -198 -590 -379 -35 -45 -67 -80 -71 -79 -5 2 -78 113 -163 247
l-156 243 0 434 0 434 -375 0 -375 0 0 -910 c0 -500 -4 -910 -8 -910 -4 0
-250 409 -547 910 l-540 909 -382 1 -383 0 0 -1545z"/>
<path d="M4959 1841 c-14 -14 -47 -38 -73 -53 -59 -35 -75 -67 -52 -103 31
-47 93 -30 126 35 17 33 40 152 29 149 -2 -1 -16 -13 -30 -28z"/>
</g>
</svg>
